<svg xmlns="http://www.w3.org/2000/svg" viewBox="0 0 88 88">  <defs>    <clipPath id="b">      <path fill="#02023C" d="M0 0h88v88H0z" transform="translate(68 66)"/>    </clipPath>  </defs>  <g fill="#8afaa8" clip-path="url(#b)" transform="translate(-68 -66)">    <path d="M109 65a9 9 0 0 1-2-2 27 27 0 0 1-3-2 28 28 0 0 1-3-3 19 19 0 0 0-2-4l-3-3-3-3-3-2a1 1 0 0 0-1-1 1 1 0 0 1 0 1h-1a14 14 0 0 1-2 2 18 18 0 0 0-3 2 10 10 0 0 1-2 2 8 8 0 0 0-3 4 5 5 0 0 1-2 2l-3 3a15 15 0 0 0-3 3 21 21 0 0 1-3 3 9 9 0 0 0-2 2h-1a11 11 0 0 1-2 3l-2 2-3 3a22 22 0 0 1-3 3 10 10 0 0 0-3 3 8 8 0 0 1-2 3 31 31 0 0 0-3 3 1 1 0 0 0-1 0 1 1 0 0 0 0 1h1a10 10 0 0 1 1 2 8 8 0 0 0 3 3l3 2a17 17 0 0 1 2 3 13 13 0 0 0 4 4 4 4 0 0 1 2 2l3 3a4 4 0 0 1 3 2v1a4 4 0 0 1 2 1l2 3 3 2a18 18 0 0 1 3 3 16 16 0 0 0 4 3 5 5 0 0 1 2 2 12 12 0 0 0 3 4 6 6 0 0 1 2 3 1 1 0 0 0 1 0 1 1 0 0 0 1 0 13 13 0 0 1 2-2 7 7 0 0 0 2-2 32 32 0 0 0 3-3 30 30 0 0 1 3-3 27 27 0 0 0 3-3 32 32 0 0 1 3-3 34 34 0 0 0 3-3l2-3a17 17 0 0 0 3-2 28 28 0 0 1 2-2l3-3 3-3 3-2a21 21 0 0 0 2-4 13 13 0 0 1 3-2l3-3a1 1 0 0 0 0-1 1 1 0 0 0 0-1 10 10 0 0 0-3-2 8 8 0 0 1-1-1 34 34 0 0 0-3-4 11 11 0 0 0-4-3 5 5 0 0 1-2-1 10 10 0 0 0-3-4 6 6 0 0 1-3-3 5 5 0 0 0-3-3l-2-2M94 96a8 8 0 0 1 3 3 6 6 0 0 0 3 3 10 10 0 0 1 3 2 33 33 0 0 1 2 3 9 9 0 0 0 3 3 7 7 0 0 1 1 1l-2 2a32 32 0 0 1-3 3 34 34 0 0 0-3 3 26 26 0 0 1-2 3 33 33 0 0 0-4 3 30 30 0 0 1-2 3 6 6 0 0 1-2 1 6 6 0 0 0-1 1 9 9 0 0 0-3-2 11 11 0 0 1-3-3 7 7 0 0 0-2-2 15 15 0 0 1-3-3 19 19 0 0 0-4-3l-3-3a4 4 0 0 1-1-1 3 3 0 0 0-2-2 7 7 0 0 0 2-2 17 17 0 0 1 2-2 15 15 0 0 0 3-3 5 5 0 0 1 2-2 12 12 0 0 0 4-3 8 8 0 0 0 2-3 7 7 0 0 1 3-3l2-3a3 3 0 0 1 2 2 7 7 0 0 0 3 4M76 77a16 16 0 0 0 3 3 16 16 0 0 1 2 2l2 4a7 7 0 0 0 3 2 4 4 0 0 1 2 1l-3 2a9 9 0 0 0-3 4 7 7 0 0 1-2 3 10 10 0 0 1-3 2 7 7 0 0 0-3 3 13 13 0 0 1-3 3 16 16 0 0 0-2 2 5 5 0 0 1-1 1 7 7 0 0 0-3-2 4 4 0 0 1-2-2 5 5 0 0 0-3-3 12 12 0 0 1-3-3 18 18 0 0 0-3-4l-3-2a7 7 0 0 1-2-2 7 7 0 0 0-1-2l2-2a10 10 0 0 0 3-3 8 8 0 0 1 2-3 24 24 0 0 0 4-3l2-2 3-3a13 13 0 0 0 2-3v1a8 8 0 0 1 2-2 4 4 0 0 1 2 2 12 12 0 0 0 3 3 12 12 0 0 1 3 3m9 8-3-4a17 17 0 0 0-2-3 15 15 0 0 1-2-2 14 14 0 0 0-4-4 11 11 0 0 1-2-3 5 5 0 0 0-3-2 18 18 0 0 0 3-2h-1a14 14 0 0 1 3-3l3-2a6 6 0 0 0 3-4v1a6 6 0 0 1 2-3 12 12 0 0 0 3-3 16 16 0 0 1 2-2 14 14 0 0 0 2-1l2 2 3 3 3 3a18 18 0 0 1 3 3 30 30 0 0 0 3 3 29 29 0 0 0 3 3 9 9 0 0 0 2 2 3 3 0 0 1 1 1 31 31 0 0 1-2 2 9 9 0 0 0-3 3 7 7 0 0 1-2 3 10 10 0 0 1-3 2 7 7 0 0 0-4 3 13 13 0 0 1-2 3 15 15 0 0 0-3 3 5 5 0 0 1-1 1 6 6 0 0 0-2-2 6 6 0 0 1-2-1m31-10a8 8 0 0 1 3 3 6 6 0 0 0 2 2 10 10 0 0 1 3 2 33 33 0 0 1 3 4 9 9 0 0 0 2 2 7 7 0 0 1 2 1l-3 2a15 15 0 0 0-2 3 20 20 0 0 1-3 3l-2 3-4 3-3 3a30 30 0 0 0-2 2 11 11 0 0 1-1 1 9 9 0 0 0-2-1 8 8 0 0 1-2-2 34 34 0 0 0-3-3 11 11 0 0 0-3-3 5 5 0 0 1-2-2 10 10 0 0 0-4-4 6 6 0 0 1-2-2 4 4 0 0 0-2-3 5 5 0 0 0 1-1 17 17 0 0 1 2-2 15 15 0 0 0 3-4 5 5 0 0 1 2-2 12 12 0 0 0 4-2 8 8 0 0 0 3-4 7 7 0 0 1 2-3l3-2a3 3 0 0 1 1 2 7 7 0 0 0 4 4m41 37-3-2a9 9 0 0 1-2-1 27 27 0 0 1-3-3 28 28 0 0 1-2-3 19 19 0 0 0-3-3l-3-3-3-3-3-3a1 1 0 0 0-1 0 14 14 0 0 1-3 2 18 18 0 0 0-2 2 10 10 0 0 1-3 2 8 8 0 0 0-2 4 5 5 0 0 1-2 2l-4 3a15 15 0 0 0-3 3 21 21 0 0 1-3 3 9 9 0 0 0-2 3 11 11 0 0 1-2 2l-3 2-3 3a22 22 0 0 1-3 3 10 10 0 0 0-2 3 8 8 0 0 1-3 3 31 31 0 0 0-3 3 1 1 0 0 0 0 1 10 10 0 0 1 2 2 8 8 0 0 0 2 3l3 2a17 17 0 0 1 2 3 13 13 0 0 0 4 4 4 4 0 0 1 2 2l3 3a4 4 0 0 1 3 2 2 2 0 0 0 0 1 4 4 0 0 1 2 1q0 2 2 3l3 3a18 18 0 0 1 3 2 16 16 0 0 0 4 4 5 5 0 0 1 2 2 12 12 0 0 0 3 3 6 6 0 0 1 3 3 1 1 0 0 0 1 0 13 13 0 0 1 2-2 7 7 0 0 0 2-1 32 32 0 0 0 3-3 30 30 0 0 1 3-3 27 27 0 0 0 3-4 32 32 0 0 1 3-2 34 34 0 0 0 3-3l3-3a17 17 0 0 0 2-3 28 28 0 0 1 2-2l3-3 3-3 3-2a21 21 0 0 0 2-4 13 13 0 0 1 3-2l3-3a1 1 0 0 0 0-1 10 10 0 0 0-2-2 8 8 0 0 1-2-2 34 34 0 0 0-3-4 11 11 0 0 0-3-2 5 5 0 0 1-2-2 10 10 0 0 0-4-4 6 6 0 0 1-2-3 5 5 0 0 0-3-3m-18 29a8 8 0 0 1 4 3 6 6 0 0 0 2 3 10 10 0 0 1 3 2 33 33 0 0 1 3 3 9 9 0 0 0 2 3 7 7 0 0 1 2 1l-3 2a32 32 0 0 1-2 3 34 34 0 0 0-3 3 26 26 0 0 1-3 3 33 33 0 0 0-3 3 30 30 0 0 1-3 3 6 6 0 0 1-1 1 1 1 0 0 1-1 0 6 6 0 0 0-1 2 9 9 0 0 0-3-3 11 11 0 0 1-2-3 7 7 0 0 0-3-2 15 15 0 0 1-3-3 19 19 0 0 0-4-3l-3-2a4 4 0 0 1-1-2 3 3 0 0 0-1-2 7 7 0 0 0 1-1 17 17 0 0 1 2-2 15 15 0 0 0 3-4 5 5 0 0 1 2-2 12 12 0 0 0 4-2 8 8 0 0 0 3-4 7 7 0 0 1 2-3l3-2a3 3 0 0 1 1 1 7 7 0 0 0 3 4m-18-19a16 16 0 0 0 3 3 16 16 0 0 1 2 3l3 3a7 7 0 0 0 3 2 4 4 0 0 1 1 1l-2 2a9 9 0 0 0-3 4 7 7 0 0 1-2 3 10 10 0 0 1-4 2 7 7 0 0 0-3 3 13 13 0 0 1-2 3 15 15 0 0 0-3 2 5 5 0 0 1-1 1 7 7 0 0 0-3-2 4 4 0 0 1-2-2 5 5 0 0 0-3-3 12 12 0 0 1-3-3 18 18 0 0 0-3-3l-3-3a7 7 0 0 1-2-2 7 7 0 0 0-1-2l3-2a10 10 0 0 0 3-3 8 8 0 0 1 2-2 24 24 0 0 0 3-3l3-3 2-3a13 13 0 0 0 2-2 8 8 0 0 1 2-2 4 4 0 0 1 2 2 12 12 0 0 0 3 3 12 12 0 0 1 3 3m9 8-2-4a17 17 0 0 0-3-2 15 15 0 0 1-2-3 14 14 0 0 0-4-4 11 11 0 0 1-2-2 5 5 0 0 0-2-2 18 18 0 0 0 2-3 14 14 0 0 1 2-3l4-2a6 6 0 0 0 2-3 6 6 0 0 1 2-3 12 12 0 0 0 3-2 16 16 0 0 1 2-2 14 14 0 0 0 2-2l3 2 3 3 2 3a18 18 0 0 1 3 3 30 30 0 0 0 3 3 29 29 0 0 0 3 3 9 9 0 0 0 3 2 3 3 0 0 1 1 1 31 31 0 0 1-3 2 9 9 0 0 0-3 4 7 7 0 0 1-2 3 10 10 0 0 1-3 2 7 7 0 0 0-3 2 13 13 0 0 1-3 4 15 15 0 0 0-2 2 5 5 0 0 1-1 1 6 6 0 0 0-3-2 6 6 0 0 1-2-1m31-10a8 8 0 0 1 3 3 6 6 0 0 0 3 3 10 10 0 0 1 2 2 33 33 0 0 1 3 3 9 9 0 0 0 3 2 7 7 0 0 1 1 1l-2 2a15 15 0 0 0-3 3 20 20 0 0 1-3 3l-2 3-3 3-3 3a30 30 0 0 0-3 2 11 11 0 0 1-1 2 9 9 0 0 0-2-2 8 8 0 0 1-2-2 34 34 0 0 0-3-3 11 11 0 0 0-3-3 5 5 0 0 1-2-2 10 10 0 0 0-3-3 6 6 0 0 1-3-3 4 4 0 0 0-2-3 5 5 0 0 0 1-1 17 17 0 0 1 2-2 15 15 0 0 0 3-3 5 5 0 0 1 3-2 12 12 0 0 0 3-3 8 8 0 0 0 3-4 7 7 0 0 1 2-3l3-2a3 3 0 0 1 2 2 7 7 0 0 0 3 4"/>    <path d="M64 110a9 9 0 0 1-2-1 27 27 0 0 1-3-3 28 28 0 0 1-3-3 19 19 0 0 0-3-3l-2-3-3-3-3-3a1 1 0 0 0-1 0 1 1 0 0 0-1 0 14 14 0 0 1-2 2 18 18 0 0 0-3 2 10 10 0 0 1-2 2 8 8 0 0 0-3 4 5 5 0 0 1-2 2l-3 3a15 15 0 0 0-3 3 21 21 0 0 1-3 3 9 9 0 0 0-3 3 11 11 0 0 1-2 2l-2 2-3 3a22 22 0 0 1-3 3 10 10 0 0 0-3 3 8 8 0 0 1-2 3 31 31 0 0 0-4 3 1 1 0 0 0 0 1 10 10 0 0 1 2 2 8 8 0 0 0 3 3l2 2a17 17 0 0 1 3 3 13 13 0 0 0 4 4 4 4 0 0 1 2 2q0 2 3 3a4 4 0 0 1 3 2 2 2 0 0 0 0 1 4 4 0 0 1 1 1q0 2 2 3l4 3a18 18 0 0 1 3 2 16 16 0 0 0 4 4h-1a5 5 0 0 1 2 2 12 12 0 0 0 4 3 6 6 0 0 1 2 3 1 1 0 0 0 1 0 1 1 0 0 0 1 0 13 13 0 0 1 2-2 7 7 0 0 0 2-1 32 32 0 0 0 3-3 30 30 0 0 1 3-3 27 27 0 0 0 3-4 32 32 0 0 1 3-2 34 34 0 0 0 2-3l3-3a17 17 0 0 0 2-3 28 28 0 0 1 2-2l4-3 3-3 2-2a21 21 0 0 0 3-4 13 13 0 0 1 2-2l4-3a1 1 0 0 0 0-1 10 10 0 0 0-3-2 8 8 0 0 1-2-2 34 34 0 0 0-3-4 11 11 0 0 0-3-2 5 5 0 0 1-2-2 10 10 0 0 0-4-4 6 6 0 0 1-2-3 5 5 0 0 0-3-3l-2-2m-15 31a8 8 0 0 1 3 3 6 6 0 0 0 3 3 10 10 0 0 1 2 2 33 33 0 0 1 3 3 9 9 0 0 0 3 3 7 7 0 0 1 1 1l-2 2a32 32 0 0 1-3 3 34 34 0 0 0-3 3 26 26 0 0 1-3 3 33 33 0 0 0-3 3 30 30 0 0 1-2 3 6 6 0 0 1-2 1 6 6 0 0 0-2 2 9 9 0 0 0-2-3 11 11 0 0 1-3-3 7 7 0 0 0-3-2 15 15 0 0 1-3-3 19 19 0 0 0-3-3l-3-2a4 4 0 0 1-2-2 3 3 0 0 0-1-2 7 7 0 0 0 1-1 17 17 0 0 1 2-2 15 15 0 0 0 3-4 5 5 0 0 1 3-2 12 12 0 0 0 3-2 8 8 0 0 0 3-4 7 7 0 0 1 2-3l3-2a3 3 0 0 1 2 1 7 7 0 0 0 3 4m-18-19a16 16 0 0 0 2 3 16 16 0 0 1 3 3l2 3a7 7 0 0 0 3 2 4 4 0 0 1 2 1l-3 2a9 9 0 0 0-3 4 7 7 0 0 1-2 3 10 10 0 0 1-3 2 7 7 0 0 0-3 3 13 13 0 0 1-3 3 15 15 0 0 0-2 2 5 5 0 0 1-1 1 7 7 0 0 0-3-2 4 4 0 0 1-2-2 5 5 0 0 0-3-3 12 12 0 0 1-3-3 18 18 0 0 0-3-3l-3-3a7 7 0 0 1-2-2 7 7 0 0 0-2-2l3-2a10 10 0 0 0 3-3 8 8 0 0 1 2-2 24 24 0 0 0 3-3l3-3 3-3a13 13 0 0 0 2-2 8 8 0 0 1 2-2 4 4 0 0 1 2 2 12 12 0 0 0 3 3 12 12 0 0 1 3 3m9 8-3-4a17 17 0 0 0-2-2 15 15 0 0 1-3-3 14 14 0 0 0-3-4 11 11 0 0 1-3-2 5 5 0 0 0-2-2 18 18 0 0 0 2-3 14 14 0 0 1 3-3l3-2a6 6 0 0 0 3-3 6 6 0 0 1 2-3 12 12 0 0 0 3-2 16 16 0 0 1 2-2 14 14 0 0 0 2-2l2 2 3 3 3 3a18 18 0 0 1 3 3 30 30 0 0 0 2 3 29 29 0 0 0 3 3 9 9 0 0 0 3 2 3 3 0 0 1 1 1 31 31 0 0 1-2 2 9 9 0 0 0-3 4 7 7 0 0 1-2 3 10 10 0 0 1-4 2 7 7 0 0 0-3 2 13 13 0 0 1-3 4 15 15 0 0 0-2 2 5 5 0 0 1-1 1 6 6 0 0 0-2-2 6 6 0 0 1-2-1m30-10a8 8 0 0 1 3 3 6 6 0 0 0 3 3 10 10 0 0 1 3 2 33 33 0 0 1 3 3 9 9 0 0 0 2 2 7 7 0 0 1 1 1l-2 2a15 15 0 0 0-3 3 20 20 0 0 1-2 3l-3 3-3 3-3 3a30 30 0 0 0-2 2 11 11 0 0 1-2 2 9 9 0 0 0-1-2 8 8 0 0 1-2-2 34 34 0 0 0-3-3 11 11 0 0 0-3-3 5 5 0 0 1-2-2 10 10 0 0 0-4-3 6 6 0 0 1-2-3 4 4 0 0 0-2-3 5 5 0 0 0 1-1 17 17 0 0 1 2-2 15 15 0 0 0 3-3 5 5 0 0 1 2-2 12 12 0 0 0 4-3 8 8 0 0 0 2-4 7 7 0 0 1 3-3l3-2a3 3 0 0 1 1 2 7 7 0 0 0 3 4m41 37-2-2a9 9 0 0 1-2-1 27 27 0 0 1-3-3 28 28 0 0 1-3-3 19 19 0 0 0-2-3l-3-3-3-3-3-3a1 1 0 0 0-1 0h-1a14 14 0 0 1-2 2 18 18 0 0 0-3 3 10 10 0 0 1-2 2 8 8 0 0 0-3 3 5 5 0 0 1-2 3l-3 2a15 15 0 0 0-3 3 21 21 0 0 1-3 3v1a9 9 0 0 0-2 2h-1a11 11 0 0 1-2 2l-2 3-3 2a22 22 0 0 1-3 3 10 10 0 0 0-3 3 8 8 0 0 1-2 3 31 31 0 0 0-3 3 1 1 0 0 0-1 1h1a10 10 0 0 1 1 3 8 8 0 0 0 3 2l3 2a17 17 0 0 1 2 3 13 13 0 0 0 4 4 4 4 0 0 1 2 2q0 2 3 3a4 4 0 0 1 3 3 4 4 0 0 1 2 2l2 3 3 2a18 18 0 0 1 3 3 16 16 0 0 0 4 3 5 5 0 0 1 2 2 12 12 0 0 0 3 3 6 6 0 0 1 2 3 1 1 0 0 0 1 0 1 1 0 0 0 0 1 1 1 0 0 0 1 0 1 1 0 0 0 0-1 13 13 0 0 1 2-1 7 7 0 0 0 2-2 32 32 0 0 0 3-3 30 30 0 0 1 3-3 27 27 0 0 0 3-3 32 32 0 0 1 3-3 34 34 0 0 0 3-3l2-3a17 17 0 0 0 3-2 28 28 0 0 1 2-2l3-4 3-2 3-3a21 21 0 0 0 2-3 13 13 0 0 1 3-3l3-2a1 1 0 0 0 0-1 1 1 0 0 0 0-1 10 10 0 0 0-3-2 8 8 0 0 1-1-2 34 34 0 0 0-3-3 11 11 0 0 0-4-3 5 5 0 0 1-2-2 10 10 0 0 0-3-4 6 6 0 0 1-3-2 5 5 0 0 0-3-4m-17 30a8 8 0 0 1 3 2v1a6 6 0 0 0 3 2 10 10 0 0 1 3 2 33 33 0 0 1 2 4 9 9 0 0 0 3 2 7 7 0 0 1 1 1l-2 2a32 32 0 0 1-3 3 34 34 0 0 0-3 3 26 26 0 0 1-2 3 33 33 0 0 0-4 4 30 30 0 0 1-2 2 6 6 0 0 1-2 2 6 6 0 0 0-1 1 9 9 0 0 0-3-3 11 11 0 0 1-3-2 7 7 0 0 0-2-3 15 15 0 0 1-3-3 19 19 0 0 0-4-3l-3-2a4 4 0 0 1-1-2 3 3 0 0 0-2-2 7 7 0 0 0 2-1 17 17 0 0 1 2-2 15 15 0 0 0 3-4 5 5 0 0 1 2-2 12 12 0 0 0 4-2 8 8 0 0 0 2-4 7 7 0 0 1 3-3l2-2a3 3 0 0 1 2 2 7 7 0 0 0 3 4m-18-20a16 16 0 0 0 3 3 16 16 0 0 1 2 3l2 3a7 7 0 0 0 3 3 4 4 0 0 1 2 1l-3 2a9 9 0 0 0-3 3 7 7 0 0 1-2 3 10 10 0 0 1-3 2 7 7 0 0 0-3 3 13 13 0 0 1-3 3 16 16 0 0 0-2 3 5 5 0 0 1-1 1 7 7 0 0 0-3-3 4 4 0 0 1-2-2 5 5 0 0 0-3-3 12 12 0 0 1-3-3 18 18 0 0 0-3-3l-3-3a7 7 0 0 1-2-1 7 7 0 0 0-1-2l2-2a10 10 0 0 0 3-4 8 8 0 0 1 2-2 24 24 0 0 0 4-3l2-3 3-2a13 13 0 0 0 2-3 8 8 0 0 1 2-2 4 4 0 0 1 2 2 12 12 0 0 0 3 3 12 12 0 0 1 3 3m9 8-3-3a17 17 0 0 0-2-3 15 15 0 0 1-2-3 14 14 0 0 0-4-4 11 11 0 0 1-2-2 5 5 0 0 0-3-2 18 18 0 0 0 3-3h-1a14 14 0 0 1 3-2l3-3a6 6 0 0 0 3-3 6 6 0 0 1 2-3 12 12 0 0 0 3-2 16 16 0 0 1 2-2 14 14 0 0 0 2-2l2 2 3 3 3 3a18 18 0 0 1 3 3 30 30 0 0 0 3 4 29 29 0 0 0 3 3 9 9 0 0 0 2 1 3 3 0 0 1 1 1 31 31 0 0 1-2 2 9 9 0 0 0-3 4 7 7 0 0 1-2 3 10 10 0 0 1-3 2 7 7 0 0 0-4 3 13 13 0 0 1-2 3 15 15 0 0 0-3 2 5 5 0 0 1-1 1 6 6 0 0 0-2-1 6 6 0 0 1-2-2m31-10a8 8 0 0 1 3 3 6 6 0 0 0 2 3 10 10 0 0 1 3 2 33 33 0 0 1 3 3 9 9 0 0 0 2 3 7 7 0 0 1 2 1l-3 1a15 15 0 0 0-2 4 20 20 0 0 1-3 3l-2 2-4 3-3 3a30 30 0 0 0-2 2 11 11 0 0 1-1 2 9 9 0 0 0-2-2 8 8 0 0 1-2-1 34 34 0 0 0-3-4 11 11 0 0 0-3-3 5 5 0 0 1-2-1 10 10 0 0 0-4-4 6 6 0 0 1-2-3 4 4 0 0 0-2-2 5 5 0 0 0 1-2 17 17 0 0 1 2-2 15 15 0 0 0 3-3 5 5 0 0 1 2-2 12 12 0 0 0 4-3 8 8 0 0 0 3-3 7 7 0 0 1 2-3l3-2a3 3 0 0 1 1 1 7 7 0 0 0 4 4m-2-97 2 3 3 2a18 18 0 0 1 3 3 16 16 0 0 0 4 3 5 5 0 0 1 2 2 12 12 0 0 0 3 3 6 6 0 0 1 3 3 1 1 0 0 0 0 1 1 1 0 0 0 1 0 13 13 0 0 1 2-2 7 7 0 0 0 2-2 32 32 0 0 0 3-3 30 30 0 0 1 3-3 27 27 0 0 0 3-3 32 32 0 0 1 3-3 34 34 0 0 0 3-3l3-3a17 17 0 0 0 2-2 28 28 0 0 1 2-2l3-3 3-3 3-3a21 21 0 0 0 2-3 13 13 0 0 1 3-3l3-2a1 1 0 0 0 0-1 1 1 0 0 0 0-1 10 10 0 0 0-2-2 8 8 0 0 1-2-2 34 34 0 0 0-3-3 11 11 0 0 0-3-3 5 5 0 0 1-2-2 10 10 0 0 0-4-3 6 6 0 0 1-2-3 5 5 0 0 0-3-3l-3-3a9 9 0 0 1-2-1 27 27 0 0 1-3-3 28 28 0 0 1-2-3 19 19 0 0 0-3-3l-3-3-3-3-3-3a1 1 0 0 0-1 0 14 14 0 0 1-3 2 18 18 0 0 0-2 3 10 10 0 0 1-3 2 8 8 0 0 0-2 3 5 5 0 0 1-2 3l-4 2a15 15 0 0 0-3 3 21 21 0 0 1-3 4 9 9 0 0 0-2 2 11 11 0 0 1-2 2l-3 3-3 3a22 22 0 0 1-3 3 10 10 0 0 0-2 3 8 8 0 0 1-3 2 31 31 0 0 0-3 3 1 1 0 0 0 0 1 1 1 0 0 0 0 1 10 10 0 0 1 2 2 8 8 0 0 0 2 2l3 3a16 16 0 0 1 2 3 13 13 0 0 0 4 3 4 4 0 0 1 2 2l3 3a4 4 0 0 1 3 3 4 4 0 0 1 2 2zm44-43a7 7 0 0 0 3 4 8 8 0 0 1 3 3 6 6 0 0 0 3 3 10 10 0 0 1 2 2 33 33 0 0 1 3 4 9 9 0 0 0 3 2 7 7 0 0 1 1 1l-2 2a15 15 0 0 0-3 3 20 20 0 0 1-3 3l-2 2-3 3-3 3a29 29 0 0 0-3 3 11 11 0 0 1-1 1 9 9 0 0 0-2-1 8 8 0 0 1-2-2 34 34 0 0 0-3-4 11 11 0 0 0-3-2 5 5 0 0 1-2-2 10 10 0 0 0-3-4 6 6 0 0 1-3-3 4 4 0 0 0-2-2 5 5 0 0 0 1-1 17 17 0 0 1 2-2 15 15 0 0 0 3-4 5 5 0 0 1 3-2 12 12 0 0 0 3-2 8 8 0 0 0 3-4 7 7 0 0 1 2-3l3-2a3 3 0 0 1 2 1m-28 14-2-3a17 17 0 0 0-3-3 15 15 0 0 1-2-3 14 14 0 0 0-4-3 11 11 0 0 1-2-3 5 5 0 0 0-2-2 18 18 0 0 0 2-2 14 14 0 0 1 2-3l4-2a6 6 0 0 0 2-4 6 6 0 0 1 2-2 12 12 0 0 0 3-3 16 16 0 0 1 2-2 14 14 0 0 0 2-2l3 3 3 3 2 3a18 18 0 0 1 3 2 30 30 0 0 0 3 4 29 29 0 0 0 3 3 9 9 0 0 0 3 1 3 3 0 0 1 1 1 32 32 0 0 1-3 2 9 9 0 0 0-3 4 7 7 0 0 1-2 3 10 10 0 0 1-3 2 7 7 0 0 0-3 3 13 13 0 0 1-3 3 15 15 0 0 0-2 2 5 5 0 0 1-1 2 6 6 0 0 0-3-2 6 6 0 0 1-2-2m-22 21a5 5 0 0 0-3-3 12 12 0 0 1-3-3 18 18 0 0 0-3-4l-3-2a7 7 0 0 1-2-2 7 7 0 0 0-1-2l3-2a10 10 0 0 0 3-3 8 8 0 0 1 2-3 24 24 0 0 0 3-3l3-3 2-2a13 13 0 0 0 2-3 8 8 0 0 1 2-1 4 4 0 0 1 2 1 12 12 0 0 0 3 3 12 12 0 0 1 3 4 16 16 0 0 0 3 3 16 16 0 0 1 2 2l3 4a7 7 0 0 0 3 2 4 4 0 0 1 1 1l-2 2a9 9 0 0 0-3 4 7 7 0 0 1-2 3 10 10 0 0 1-4 2 7 7 0 0 0-3 2 13 13 0 0 1-2 4 15 15 0 0 0-3 2 5 5 0 0 1-1 1 7 7 0 0 0-3-3 4 4 0 0 1-2-1zm8 8a3 3 0 0 0-1-3 7 7 0 0 0 1-1 17 17 0 0 1 2-2 15 15 0 0 0 3-3 5 5 0 0 1 2-3v1a12 12 0 0 0 4-3 8 8 0 0 0 2-4 7 7 0 0 1 3-3l3-2a3 3 0 0 1 1 2 7 7 0 0 0 3 4 8 8 0 0 1 4 3 6 6 0 0 0 2 2 10 10 0 0 1 3 3 33 33 0 0 1 3 3 9 9 0 0 0 2 2 7 7 0 0 1 2 1l-3 3a31 31 0 0 1-2 3 34 34 0 0 0-3 3 26 26 0 0 1-3 3 33 33 0 0 0-3 3 30 30 0 0 1-3 3 6 6 0 0 1-1 1 1 1 0 0 1-1 0 6 6 0 0 0-1 1 9 9 0 0 0-3-2 11 11 0 0 1-2-3 7 7 0 0 0-3-3 15 15 0 0 1-3-2 19 19 0 0 0-4-4l-3-2a4 4 0 0 1-1-1m86-1-2-2a9 9 0 0 1-2-2 27 27 0 0 1-3-2 28 28 0 0 1-3-3 19 19 0 0 0-3-4l-3-3-3-3-3-2a1 1 0 0 0 0-1 1 1 0 0 0-1 0 1 1 0 0 1 0 1 14 14 0 0 1-2 2 18 18 0 0 0-3 2 10 10 0 0 1-2 2 8 8 0 0 0-3 4 5 5 0 0 1-2 2l-3 3h-1a15 15 0 0 0-3 3 21 21 0 0 1-2 3 9 9 0 0 0-3 2 11 11 0 0 1-2 3l-3 2-2 3a21 21 0 0 1-3 3 10 10 0 0 0-3 3 8 8 0 0 1-2 3 31 31 0 0 0-4 3 1 1 0 0 0 0 1 10 10 0 0 1 2 2 8 8 0 0 0 2 3l3 2a17 17 0 0 1 3 3 13 13 0 0 0 3 4 4 4 0 0 1 2 2l4 3a4 4 0 0 1 2 2 2 2 0 0 0 1 0v1a4 4 0 0 1 1 1l2 3 3 2a18 18 0 0 1 4 3 16 16 0 0 0 3 3 5 5 0 0 1 2 2 12 12 0 0 0 3 4 6 6 0 0 1 3 3 1 1 0 0 0 1 0 1 1 0 0 0 1 0 13 13 0 0 1 1-2 7 7 0 0 0 3-2 32 32 0 0 0 2-3 31 31 0 0 1 3-3 27 27 0 0 0 4-3 33 33 0 0 1 2-3 34 34 0 0 0 3-3l3-3a17 17 0 0 0 2-2 28 28 0 0 1 2-2l3-3 3-3 3-2a21 21 0 0 0 3-4 13 13 0 0 1 2-2l3-3a1 1 0 0 0 1-1 1 1 0 0 0-1 0 1 1 0 0 0 0-1 11 11 0 0 0-2-2 8 8 0 0 1-2-1 34 34 0 0 0-3-4 11 11 0 0 0-3-3 5 5 0 0 1-2-1 10 10 0 0 0-4-4 6 6 0 0 1-2-3 5 5 0 0 0-3-3m-17 29a8 8 0 0 1 3 3 6 6 0 0 0 3 3 9 9 0 0 1 2 2 33 33 0 0 1 3 3 9 9 0 0 0 2 3 7 7 0 0 1 2 1l-2 2a32 32 0 0 1-3 3 34 34 0 0 0-3 3 26 26 0 0 1-3 3 33 33 0 0 0-3 3 30 30 0 0 1-3 3 6 6 0 0 1-1 1 6 6 0 0 0-2 1 9 9 0 0 0-2-2 11 11 0 0 1-3-3 7 7 0 0 0-3-2 15 15 0 0 1-3-3 19 19 0 0 0-4-3l-3-3a4 4 0 0 1-1-1 3 3 0 0 0-1-2 7 7 0 0 0 1-2 17 17 0 0 1 2-2 15 15 0 0 0 3-3 5 5 0 0 1 2-2 12 12 0 0 0 4-3 8 8 0 0 0 3-3 7 7 0 0 1 2-3l3-3a3 3 0 0 1 1 2 7 7 0 0 0 4 4m-18-19a16 16 0 0 0 2 3 16 16 0 0 1 2 2l3 4a7 7 0 0 0 3 2 4 4 0 0 1 1 1l-2 2a9 9 0 0 0-3 4 7 7 0 0 1-2 3 10 10 0 0 1-3 2 7 7 0 0 0-4 3 13 13 0 0 1-2 3 16 16 0 0 0-3 2 5 5 0 0 1 0 1 7 7 0 0 0-3-2 4 4 0 0 1-3-2 5 5 0 0 0-2-3 12 12 0 0 1-4-3 18 18 0 0 0-2-4l-3-2a7 7 0 0 1-2-2 7 7 0 0 0-2-2l3-2a9 9 0 0 0 3-3 8 8 0 0 1 2-3 24 24 0 0 0 3-3l3-2 2-3a13 13 0 0 0 3-3v1a8 8 0 0 1 1-2 4 4 0 0 1 2 2 12 12 0 0 0 3 3 12 12 0 0 1 4 3m8 8-2-4a17 17 0 0 0-3-3 15 15 0 0 1-2-2 14 14 0 0 0-3-4 11 11 0 0 1-3-3 5 5 0 0 0-2-2 18 18 0 0 0 2-2 14 14 0 0 1 3-3l3-2a6 6 0 0 0 3-3 6 6 0 0 1 2-3 12 12 0 0 0 2-3 17 17 0 0 1 3-2 14 14 0 0 0 2-1l2 2 3 3 3 3a17 17 0 0 1 2 3 30 30 0 0 0 3 3 29 29 0 0 0 3 3 9 9 0 0 0 3 2 3 3 0 0 1 1 1 31 31 0 0 1-3 2 9 9 0 0 0-3 3 7 7 0 0 1-2 3 10 10 0 0 1-3 2 7 7 0 0 0-3 3 13 13 0 0 1-3 3 15 15 0 0 0-2 3 5 5 0 0 1-1 1 6 6 0 0 0-2-2 6 6 0 0 1-3-1m31-10a8 8 0 0 1 3 3 6 6 0 0 0 3 2 10 10 0 0 1 3 2 33 33 0 0 1 2 4 9 9 0 0 0 3 2 7 7 0 0 1 1 1l-2 2a15 15 0 0 0-3 3 20 20 0 0 1-2 3l-3 3-3 3-3 3a29 29 0 0 0-2 2 11 11 0 0 1-2 1 9 9 0 0 0-2-1 8 8 0 0 1-1-2 34 34 0 0 0-3-3 11 11 0 0 0-4-3 5 5 0 0 1-1-2 10 10 0 0 0-4-4 6 6 0 0 1-3-2 4 4 0 0 0-1-3 5 5 0 0 0 1-1 17 17 0 0 1 2-2 15 15 0 0 0 3-4 5 5 0 0 1 2-2 12 12 0 0 0 4-2 8 8 0 0 0 2-4 7 7 0 0 1 3-3l2-2a3 3 0 0 1 2 2 7 7 0 0 0 3 4"/>  </g></svg>